<svg width="3258" height="1770" viewBox="0 0 3258 1770" fill="none" xmlns="http://www.w3.org/2000/svg">
<g clip-path="url(#clip0_1146_80)">
<path d="M2499.13 479.18C2429.33 479.129 2359.86 488.699 2292.67 507.62C2123.89 290.3 1860.1 150.41 1563.61 150.41C1123.84 150.41 756 458.09 663.49 869.9C633.996 863.709 603.426 864.946 574.528 873.498C545.63 882.051 519.311 897.651 497.937 918.896C476.563 940.142 460.803 966.366 452.076 995.211C443.349 1024.06 441.928 1054.62 447.94 1084.15C248.17 1135.49 100.55 1316.81 100.55 1532.6C100.434 1616.16 123.037 1698.17 165.94 1769.87H3038.82C3173.91 1632.95 3257.31 1444.87 3257.31 1237.37C3257.32 818.63 2917.86 479.18 2499.13 479.18Z" fill="#E6E6E6"/>
<path d="M1677.45 388.28H1720.61V701.48H1677.45V388.28ZM1737.51 357.84H1780.67V701.47H1737.51V357.84ZM1797.57 335.97H1840.73V701.47H1797.57V335.97ZM1857.63 268.28H1900.79V701.47H1857.63V268.28ZM1917.69 214.68H1960.85V701.48H1917.69V214.68ZM1977.75 175.26H2020.91V701.47H1977.75V175.26ZM2035.91 152.87H2080.02V701.47H2035.91V152.87Z" fill="#56B1DA"/>
<path d="M1080.22 554.08L1274.01 375.55L1315.36 493.58L1597.6 233.6L1634.5 314.59L1852.49 111.93" stroke="#73789C" stroke-width="17" stroke-miterlimit="10"/>
<path d="M1885.94 78.26L1788.41 104.03L1860.17 175.79L1885.94 78.26Z" fill="#73789C"/>
<path d="M1273.19 400.16C1288.09 400.16 1300.17 388.081 1300.17 373.18C1300.17 358.279 1288.09 346.2 1273.19 346.2C1258.29 346.2 1246.21 358.279 1246.21 373.18C1246.21 388.081 1258.29 400.16 1273.19 400.16Z" fill="#56B1DA"/>
<path d="M1597.65 260.58C1612.55 260.58 1624.63 248.501 1624.63 233.6C1624.63 218.699 1612.55 206.62 1597.65 206.62C1582.75 206.62 1570.67 218.699 1570.67 233.6C1570.67 248.501 1582.75 260.58 1597.65 260.58Z" fill="#56B1DA"/>
<path d="M429.45 1042.17C429.45 1042.17 411.5 1021.71 413.6 988.63C415.7 955.55 387.89 950.02 378.87 963.48C369.85 976.94 374.41 1011.62 429.45 1042.17ZM457.94 1052.57C457.94 1052.57 457.17 1025.37 479.88 1001.23C502.59 977.09 484.7 955.09 469.18 959.71C453.66 964.33 435.08 993.93 457.94 1052.57ZM456.15 1056.05C456.15 1056.05 430.07 1063.81 414.24 1092.94C398.41 1122.07 371.92 1111.94 371.45 1095.75C370.98 1079.56 393.3 1052.61 456.15 1056.05ZM504.22 1087.5C504.22 1087.5 478.14 1095.26 462.31 1124.39C446.48 1153.52 419.99 1143.39 419.52 1127.2C419.05 1111.01 441.36 1084.06 504.22 1087.5ZM539.94 1126.87C539.94 1126.87 513.86 1134.64 498.03 1163.76C482.2 1192.88 455.71 1182.76 455.24 1166.57C454.77 1150.38 477.13 1123.39 539.94 1126.87ZM582.15 1177.4C582.15 1177.4 556.07 1185.17 540.24 1214.29C524.41 1243.41 497.92 1233.29 497.45 1217.1C496.98 1200.91 519.3 1173.97 582.15 1177.4ZM503.74 1087.3C503.74 1087.3 502.97 1060.1 525.68 1035.96C548.39 1011.82 530.5 989.82 514.98 994.44C499.46 999.06 480.84 1028.67 503.74 1087.3ZM545.57 1129.64C545.57 1129.64 544.8 1102.44 567.51 1078.3C590.22 1054.16 572.33 1032.16 556.81 1036.78C541.29 1041.4 522.67 1071.01 545.57 1129.64ZM583.59 1175.71C583.59 1175.71 582.82 1148.51 605.53 1124.37C628.24 1100.23 610.35 1078.23 594.83 1082.85C579.31 1087.47 560.68 1117.08 583.59 1175.71Z" fill="#56B1DA"/>
<path d="M699.37 1403.8C698.857 1403.71 698.379 1403.48 697.989 1403.14C697.599 1402.79 697.312 1402.35 697.16 1401.85C696.96 1401.19 676.3 1334.62 631.82 1256.54C590.82 1184.61 520.68 1087.9 419.12 1035.65C418.457 1035.31 417.956 1034.72 417.728 1034.01C417.501 1033.3 417.564 1032.53 417.905 1031.86C418.246 1031.2 418.836 1030.7 419.546 1030.47C420.256 1030.25 421.027 1030.31 421.69 1030.65C524.52 1083.56 595.41 1181.24 636.77 1253.88C681.53 1332.48 702.33 1399.54 702.54 1400.21C702.682 1400.67 702.704 1401.16 702.604 1401.63C702.503 1402.1 702.284 1402.53 701.967 1402.89C701.65 1403.26 701.246 1403.53 700.793 1403.69C700.34 1403.85 699.853 1403.89 699.38 1403.81L699.37 1403.8Z" fill="#56B1DA"/>
<path d="M1683.56 316.1C1683.56 316.1 1705.08 277.48 1716.06 275.64C1727.04 273.8 1710.72 312.88 1687.57 326.22L1683.56 316.1Z" fill="white"/>
<path d="M1682.24 312.16C1687.43 316.74 1692.63 321.26 1697.58 325.16C1622.81 411.22 1540.74 444.87 1486.14 323.92C1477.79 305.42 1483.52 306.49 1494.25 301.14C1495.69 298.26 1494.87 299.04 1494.25 301.14C1504.98 295.79 1511.83 293.93 1518.12 311.45C1559.28 425.96 1613.23 367.87 1682.24 312.16ZM1530.32 497.12C1539.32 541.3 1545.62 587.21 1536.81 622.88H1458.08C1461.01 591.88 1460.94 555.38 1458.19 512.79C1482.42 510.47 1506.02 498.23 1530.32 497.12Z" fill="#292B3B"/>
<path d="M1446.54 523.94C1458.26 520.85 1470.54 519.55 1498.88 521.7H1499.46C1520.35 523.33 1536.57 503.76 1530.83 483.61C1507.53 401.81 1506.83 358.86 1513.71 333.9C1515.71 326.777 1515.75 319.248 1513.85 312.1C1511.94 304.952 1508.16 298.445 1502.88 293.26L1498.67 289.14C1479.1 270.03 1446.16 278.14 1437.82 304.14C1434.68 314.02 1432.24 324.108 1430.51 334.33C1421.17 388.72 1425.75 447.99 1446.54 523.94Z" fill="#FFCECC"/>
<path d="M1423.64 331.96C1425.64 320.52 1424.72 314.09 1427.52 305.37C1434.13 284.73 1445.69 273.26 1464.29 279.75C1457 320.75 1510.76 566.58 1510.18 566.53C1481.84 564.38 1465.18 566.74 1453.45 569.83C1432.65 493.87 1414.3 386.3 1423.64 331.96Z" fill="#292B3B"/>
<path d="M1464.67 241.45C1471.48 266.27 1494.3 281.65 1509.47 277.45C1524.64 273.25 1526.42 251.16 1519.61 226.33C1512.8 201.5 1497.03 192.25 1481.86 196.41C1466.69 200.57 1457.86 216.63 1464.67 241.45Z" fill="white"/>
<path d="M1468.69 242.78L1495.69 243.35C1495.61 247.05 1494.26 282.22 1491.34 295.19C1489.88 299.12 1482.99 300.19 1475.97 297.56C1469.65 295.21 1465.41 290.69 1465.67 286.95C1467.42 279.16 1468.42 255.71 1468.69 242.78ZM1410.21 482.87C1410.21 482.87 1448.3 505.3 1449.88 516.33C1451.46 527.36 1412.78 510.1 1400 486.64L1410.21 482.87Z" fill="white"/>
<path d="M1420.23 485.87C1415.23 490.64 1410.23 495.42 1405.92 500.02C1326.73 418.02 1300.38 333.31 1425.65 289.5C1444.81 282.8 1443.24 288.41 1447.65 299.57C1450.39 301.26 1449.65 300.37 1447.65 299.57C1452.04 310.73 1453.29 317.71 1435.29 322.45C1317.62 353.41 1370.76 412.23 1420.23 485.87ZM1493.94 281.87C1499.05 283.636 1503.71 286.511 1507.58 290.29L1511.79 294.41C1517.07 299.595 1520.85 306.102 1522.76 313.25C1524.66 320.398 1524.62 327.927 1522.62 335.05C1514.62 364.24 1506.1 399.88 1531.62 486.43C1506.21 474.67 1486.68 322.87 1493.94 281.87ZM1469.41 256.59C1469.41 256.59 1480.1 274.59 1492.87 279.28C1506.61 284.28 1518.21 281.73 1522.38 270.72C1523.38 268.03 1524.87 257.06 1523.38 252.91C1523.38 252.91 1521.2 263.33 1517.22 267.23C1514.93 269.47 1506.08 273.45 1498.11 269.77C1490.14 266.09 1482.94 254.96 1480.7 252.87C1478.46 250.78 1467.02 252.79 1469.41 256.59ZM1467.37 246.17C1467.37 246.17 1472.37 244.79 1473 241.57C1473.63 238.35 1472 228.85 1473 226.09C1474 223.33 1477 220.26 1476.57 217.35C1476.14 214.44 1481.63 212.9 1485 213.82C1488.37 214.74 1501.56 216.73 1504.16 211.21C1506.76 205.69 1511.82 210.9 1512.74 207.21C1513.66 203.52 1504.88 190.96 1492.87 191.42C1480.86 191.88 1459.55 196.63 1458.63 216.25C1458.63 216.28 1445.76 233.29 1467.37 246.17Z" fill="#292B3B"/>
<path d="M1456.04 251.34C1457.63 257.12 1465.39 262.93 1469.58 261.78C1473.77 260.63 1473.53 255.66 1471.94 249.88C1470.35 244.1 1465.48 239.63 1461.29 240.78C1457.1 241.93 1454.46 245.56 1456.04 251.34Z" fill="white"/>
<path d="M1497.65 227.484L1484.81 232.339C1483.87 232.695 1483.39 233.745 1483.75 234.685L1486.22 241.224C1486.58 242.164 1487.63 242.638 1488.57 242.282L1501.41 237.427C1502.35 237.071 1502.82 236.021 1502.47 235.081L1500 228.542C1499.64 227.602 1498.59 227.128 1497.65 227.484Z" stroke="#292B3B" stroke-width="1.38" stroke-miterlimit="10"/>
<path d="M1520.56 218.825L1507.71 223.68C1506.77 224.036 1506.3 225.086 1506.66 226.026L1509.13 232.565C1509.48 233.505 1510.53 233.979 1511.47 233.623L1524.32 228.768C1525.26 228.413 1525.73 227.362 1525.38 226.422L1522.9 219.884C1522.55 218.943 1521.5 218.469 1520.56 218.825Z" stroke="#292B3B" stroke-width="1.38" stroke-miterlimit="10"/>
<path d="M1500.72 230.38L1507.37 227.87" stroke="#292B3B" stroke-width="1.38" stroke-miterlimit="10"/>
<path d="M704.85 1191.01C807.43 1288.28 955.68 1298.48 955.68 1298.48L584.21 946.23C584.21 946.23 602.27 1093.74 704.85 1191.01Z" fill="#A0DAEA"/>
<path d="M584.21 946.23L955.68 1298.47C955.68 1298.47 937.63 1150.96 835.05 1053.69C732.47 956.42 584.21 946.23 584.21 946.23Z" fill="#B5E8FF"/>
<path d="M585.4 1332.34C585.19 1332.14 564.11 1312.4 530.91 1289.61C500.34 1268.61 452.91 1240.71 400.76 1226.83L402.48 1220.36C425.97 1226.61 450.48 1236.13 475.24 1248.66C495.862 1259.16 515.762 1271.02 534.81 1284.16C568.4 1307.22 589.81 1327.26 589.99 1327.46L585.4 1332.34Z" fill="#56B1DA"/>
<path d="M405.316 1231.81C410.05 1226.85 409.863 1218.99 404.899 1214.25C399.935 1209.52 392.073 1209.71 387.34 1214.67C382.606 1219.63 382.793 1227.5 387.757 1232.23C392.721 1236.96 400.582 1236.78 405.316 1231.81Z" fill="#56B1DA"/>
<path d="M433.899 1193.33C438.634 1188.37 438.449 1180.51 433.486 1175.77C428.522 1171.04 420.661 1171.22 415.926 1176.18C411.191 1181.15 411.377 1189.01 416.34 1193.74C421.303 1198.48 429.165 1198.29 433.899 1193.33Z" fill="#56B1DA"/>
<path d="M452.305 1302.05C457.04 1297.08 456.855 1289.22 451.892 1284.49C446.928 1279.75 439.067 1279.94 434.332 1284.9C429.597 1289.86 429.783 1297.73 434.746 1302.46C439.709 1307.2 447.571 1307.01 452.305 1302.05Z" fill="#56B1DA"/>
<path d="M463.11 1243.06L458.11 1247.51C457.11 1246.44 434.65 1220.98 423.96 1192.2L430.24 1189.87C440.5 1217.48 462.89 1242.81 463.11 1243.06ZM497.38 1267.36C497.15 1267.36 474.38 1272.36 449.7 1291.5L445.6 1286.21C471.6 1266.02 495.04 1261 496.02 1260.8L497.38 1267.36Z" fill="#56B1DA"/>
<path d="M825.15 1058.06C851.96 1196.86 966.6 1291.43 966.6 1291.43L869.5 788.8C869.5 788.8 798.34 919.27 825.15 1058.06Z" fill="#A0DAEA"/>
<path d="M869.49 788.8L966.59 1291.43C966.59 1291.43 1037.75 1160.97 1010.93 1022.17C984.11 883.37 869.49 788.8 869.49 788.8Z" fill="#B5E8FF"/>
<path d="M739.75 1220.81C583.91 1220.81 452.49 1325.33 411.75 1468.08H1067.75C1027.01 1325.32 895.59 1220.81 739.75 1220.81ZM1634.58 1220.81C1478.74 1220.81 1347.32 1325.33 1306.58 1468.08H1962.58C1921.84 1325.32 1790.42 1220.81 1634.58 1220.81Z" fill="#B5E8FF"/>
<path d="M1208.26 1114.87C985.67 1114.87 797.95 1264.16 739.75 1468.07H1676.75C1618.57 1264.17 1430.86 1114.87 1208.26 1114.87Z" fill="#B5E8FF"/>
<path d="M2795.1 643.92C2795.1 643.92 2817.36 604.12 2802.36 550.65C2787.36 497.18 2831.01 478.39 2850.48 497.3C2869.95 516.21 2874.62 574.62 2795.1 643.92ZM2751.94 670.92C2751.94 670.92 2743.7 626.07 2698.04 594.45C2652.38 562.83 2674.04 520.52 2701.04 522.67C2728.04 524.82 2769.02 566.87 2751.94 670.92ZM2756.19 675.99C2756.19 675.99 2801.65 679.6 2837.77 721.79C2873.89 763.98 2913.77 738.13 2908.87 711.44C2903.97 684.75 2857.99 648.4 2756.19 675.99ZM2688.41 744.32C2688.41 744.32 2733.87 747.93 2769.99 790.12C2806.11 832.31 2845.99 806.46 2841.09 779.77C2836.19 753.08 2790.21 716.73 2688.41 744.32ZM2643.54 821.27C2643.54 821.27 2689 824.88 2725.12 867.07C2761.24 909.26 2801.12 883.41 2796.22 856.72C2791.32 830.03 2745.34 793.68 2643.54 821.27ZM2592.11 918.87C2592.11 918.87 2637.57 922.48 2673.69 964.67C2709.81 1006.86 2749.69 981.01 2744.79 954.32C2739.89 927.63 2693.94 891.3 2592.11 918.87ZM2689.12 743.87C2689.12 743.87 2680.88 699.02 2635.22 667.4C2589.56 635.78 2611.22 593.47 2638.22 595.62C2665.22 597.77 2706.16 639.74 2689.12 743.87ZM2635.37 827.87C2635.37 827.87 2627.13 783.02 2581.47 751.4C2535.81 719.78 2557.47 677.47 2584.47 679.62C2611.47 681.77 2652.41 723.75 2635.37 827.87ZM2589.16 916.62C2589.16 916.62 2580.92 871.77 2535.26 840.15C2489.6 808.53 2511.26 766.22 2538.26 768.37C2565.26 770.52 2606.21 812.53 2589.16 916.62Z" fill="#30637A"/>
<path d="M2477.75 1331.19C2478.86 1331.1 2479.91 1330.62 2480.7 1329.84C2481.49 1329.05 2481.97 1328.01 2482.07 1326.9C2482.17 1325.74 2492.76 1209.44 2538.37 1065.9C2580.37 933.71 2661.58 750.7 2809.76 629.57C2810.24 629.176 2810.64 628.692 2810.93 628.144C2811.22 627.597 2811.4 626.997 2811.46 626.38C2811.52 625.762 2811.46 625.139 2811.28 624.545C2811.1 623.952 2810.8 623.399 2810.41 622.92C2810.02 622.441 2809.53 622.044 2808.98 621.752C2808.44 621.46 2807.84 621.278 2807.22 621.218C2806.6 621.157 2805.98 621.219 2805.39 621.4C2804.79 621.58 2804.24 621.876 2803.76 622.27C2653.76 744.91 2571.69 929.77 2529.28 1063.27C2483.39 1207.73 2472.74 1324.88 2472.64 1326.05C2472.58 1326.67 2472.65 1327.29 2472.84 1327.88C2473.02 1328.47 2473.32 1329.02 2473.72 1329.49C2474.12 1329.97 2474.61 1330.36 2475.15 1330.64C2475.7 1330.93 2476.3 1331.11 2476.92 1331.16C2477.2 1331.19 2477.47 1331.2 2477.75 1331.19ZM2930.67 1044.87C2930.67 1044.87 2961.1 1024.87 2970.17 981.45C2979.24 938.03 3017.08 940.8 3023.92 961.37C3030.76 981.94 3012.54 1025.01 2930.67 1044.87ZM2890.16 1048.08C2890.16 1048.08 2900.84 1013.26 2880.16 974.08C2859.48 934.9 2890.36 912.85 2908.75 924.33C2927.14 935.81 2940.58 980.6 2890.16 1048.08ZM2891.28 1053.23C2891.28 1053.23 2922.16 1072.53 2932.22 1115.73C2942.28 1158.93 2980.05 1155.3 2986.42 1134.58C2992.79 1113.86 2973.59 1071.17 2891.28 1053.23ZM2818.08 1076.69C2818.08 1076.69 2848.96 1095.99 2859.02 1139.19C2869.08 1182.39 2906.85 1178.76 2913.22 1158.04C2919.59 1137.32 2900.39 1094.63 2818.08 1076.69ZM2757.94 1114.69C2757.94 1114.69 2788.82 1133.99 2798.88 1177.19C2808.94 1220.39 2846.71 1216.76 2853.08 1196.04C2859.45 1175.32 2840.25 1132.63 2757.94 1114.69ZM2685.55 1164.93C2685.55 1164.93 2716.43 1184.23 2726.49 1227.43C2736.55 1270.63 2774.32 1267 2780.69 1246.28C2787.06 1225.56 2767.86 1182.87 2685.55 1164.93ZM2818.76 1076.6C2818.76 1076.6 2829.44 1041.78 2808.76 1002.6C2788.08 963.42 2818.96 941.37 2837.35 952.85C2855.74 964.33 2869.18 1009.12 2818.76 1076.6ZM2749.74 1116.34C2749.74 1116.34 2760.42 1081.52 2739.74 1042.34C2719.06 1003.16 2749.94 981.11 2768.33 992.59C2786.72 1004.07 2800.15 1048.87 2749.74 1116.34ZM2684.3 1162.24C2684.3 1162.24 2694.98 1127.42 2674.3 1088.24C2653.62 1049.06 2684.5 1027.01 2702.89 1038.49C2721.28 1049.97 2734.71 1094.75 2684.3 1162.24Z" fill="#30637A"/>
<path d="M2453.76 1415.27C2454.45 1415.34 2455.15 1415.22 2455.78 1414.91C2456.4 1414.61 2456.93 1414.14 2457.31 1413.55C2457.81 1412.77 2508.14 1334.25 2593.31 1249.36C2671.77 1171.16 2796.7 1071.36 2946.31 1040.11C2947.29 1039.91 2948.14 1039.32 2948.69 1038.49C2949.24 1037.65 2949.43 1036.63 2949.22 1035.66C2949.02 1034.68 2948.44 1033.82 2947.6 1033.27C2946.77 1032.73 2945.75 1032.54 2944.77 1032.74C2793.29 1064.39 2667.07 1165.18 2587.86 1244.16C2502.14 1329.63 2451.44 1408.73 2450.94 1409.52C2450.59 1410.06 2450.39 1410.68 2450.35 1411.33C2450.31 1411.97 2450.44 1412.61 2450.72 1413.19C2451 1413.77 2451.43 1414.27 2451.96 1414.63C2452.49 1415 2453.1 1415.23 2453.74 1415.29L2453.76 1415.27Z" fill="#30637A"/>
<path d="M2055.44 1288.33C1934.8 1288.33 1833.07 1369.24 1801.53 1479.75H2309.36C2277.81 1369.24 2176.08 1288.33 2055.44 1288.33ZM2748.15 1288.33C2627.51 1288.33 2525.78 1369.24 2494.24 1479.75H3002.07C2970.52 1369.24 2868.79 1288.33 2748.15 1288.33Z" fill="#448CAD"/>
<path d="M2418.13 1206.33C2245.81 1206.33 2100.5 1321.9 2055.44 1479.75H2780.82C2735.76 1321.87 2590.44 1206.33 2418.13 1206.33Z" fill="#448CAD"/>
<path d="M2517.04 1578.59H840.84C825.964 1578.59 811.697 1572.68 801.178 1562.16C790.659 1551.64 784.75 1537.38 784.75 1522.5C784.75 1507.62 790.659 1493.36 801.178 1482.84C811.697 1472.32 825.964 1466.41 840.84 1466.41H2517.04C2531.92 1466.41 2546.18 1472.32 2556.7 1482.84C2567.22 1493.36 2573.13 1507.62 2573.13 1522.5C2573.13 1537.38 2567.22 1551.64 2556.7 1562.16C2546.18 1572.68 2531.92 1578.59 2517.04 1578.59Z" fill="#56B1DA"/>
<path d="M193.53 320.8C101.58 320.8 24.04 382.47 0 466.7H387.05C363.01 382.47 285.47 320.8 193.53 320.8ZM721.49 320.8C629.54 320.8 552 382.47 527.96 466.7H915.01C890.94 382.47 813.44 320.8 721.49 320.8Z" fill="#D0F1F2"/>
<path d="M469.94 258.3C338.6 258.3 227.85 346.38 193.51 466.7H746.39C712.05 346.39 601.29 258.3 469.94 258.3Z" fill="#D0F1F2"/>
<path d="M224.58 445.76C197.571 445.76 171.296 454.553 149.727 470.811C128.158 487.068 112.469 509.905 105.03 535.87H344.12C336.682 509.907 320.994 487.071 299.427 470.814C277.86 454.557 251.588 445.762 224.58 445.76ZM550.71 445.76C523.702 445.762 497.43 454.557 475.863 470.814C454.296 487.071 438.608 509.907 431.17 535.87H670.26C662.821 509.905 647.132 487.068 625.563 470.811C603.994 454.553 577.719 445.76 550.71 445.76Z" fill="white"/>
<path d="M395.33 407.15C356.752 407.155 319.224 419.718 288.418 442.941C257.612 466.163 235.204 498.783 224.58 535.87H566.09C555.466 498.782 533.056 466.161 502.248 442.938C471.441 419.715 433.91 407.152 395.33 407.15ZM714.53 41.26C695.086 41.2621 676.17 47.5945 660.644 59.2998C645.117 71.0051 633.824 87.4471 628.47 106.14H800.6C795.246 87.4454 783.951 71.0023 768.422 59.2968C752.894 47.5913 733.976 41.26 714.53 41.26ZM949.32 41.26C929.876 41.2621 910.96 47.5945 895.434 59.2998C879.907 71.0051 868.614 87.4471 863.26 106.14H1035.38C1030.03 87.4471 1018.73 71.0051 1003.21 59.2998C987.68 47.5945 968.765 41.2621 949.32 41.26Z" fill="white"/>
<path d="M837.46 13.47C809.684 13.4722 782.664 22.5176 760.486 39.2387C738.307 55.9597 722.176 79.4472 714.53 106.15H960.39C952.744 79.4472 936.613 55.9597 914.434 39.2387C892.256 22.5176 865.236 13.4722 837.46 13.47Z" fill="white"/>
<path d="M2618.55 54.96C2580.1 54.9553 2542.69 67.474 2511.98 90.6225C2481.27 113.771 2458.94 146.29 2448.36 183.26H2788.74C2778.16 146.29 2755.83 113.771 2725.12 90.6225C2694.41 67.474 2657 54.9553 2618.55 54.96ZM3082.85 54.96C3044.4 54.9553 3006.99 67.474 2976.28 90.6225C2945.57 113.771 2923.24 146.29 2912.66 183.26H3253.04C3242.46 146.29 3220.13 113.771 3189.42 90.6225C3158.71 67.474 3121.3 54.9553 3082.85 54.96Z" fill="#D0F1F2"/>
<path d="M2861.65 0C2746.15 0 2648.75 77.46 2618.55 183.27H3104.74C3074.55 77.46 2977.15 0 2861.65 0Z" fill="#D0F1F2"/>
<path d="M1119.5 243.55C1105.92 243.551 1092.71 247.974 1081.86 256.151C1071.02 264.327 1063.13 275.813 1059.39 288.87H1179.61C1175.87 275.813 1167.98 264.327 1157.14 256.151C1146.29 247.974 1133.08 243.551 1119.5 243.55ZM1283.49 243.55C1269.91 243.551 1256.7 247.974 1245.85 256.151C1235.01 264.327 1227.12 275.813 1223.38 288.87H1343.6C1339.86 275.813 1331.97 264.327 1321.13 256.151C1310.28 247.974 1297.07 243.551 1283.49 243.55Z" fill="#38748F"/>
<path d="M1205.36 224.14C1185.96 224.142 1167.09 230.459 1151.6 242.138C1136.11 253.816 1124.84 270.22 1119.5 288.87H1291.22C1285.88 270.22 1274.61 253.816 1259.12 242.138C1243.63 230.459 1224.76 224.142 1205.36 224.14Z" fill="#38748F"/>
<path d="M2225.92 725.13H2132.48V556.94H2225.92V725.13Z" fill="#56B1DA"/>
<path d="M2179.2 786.13L2255.94 709.15H2102.45L2179.2 786.13Z" fill="#56B1DA"/>
<path d="M2009.01 509.61H2102.45V677.8H2009.01V509.61Z" fill="#FFA9A6"/>
<path d="M2055.73 448.61L1978.98 525.6H2132.48L2055.73 448.61Z" fill="#FFA9A6"/>
<path d="M762.89 1294.18C770.828 1294.18 778.441 1291.03 784.054 1285.41C789.667 1279.8 792.82 1272.19 792.82 1264.25C792.82 1272.19 795.973 1279.8 801.586 1285.41C807.199 1291.03 814.812 1294.18 822.75 1294.18C814.812 1294.18 807.199 1297.33 801.586 1302.95C795.973 1308.56 792.82 1316.17 792.82 1324.11C792.82 1316.17 789.667 1308.56 784.054 1302.95C778.441 1297.33 770.828 1294.18 762.89 1294.18ZM678.47 1401.67C682.899 1401.67 687.147 1399.91 690.279 1396.78C693.41 1393.65 695.17 1389.4 695.17 1384.97C695.17 1389.4 696.929 1393.65 700.061 1396.78C703.193 1399.91 707.441 1401.67 711.87 1401.67C709.677 1401.67 707.505 1402.1 705.479 1402.94C703.453 1403.78 701.612 1405.01 700.061 1406.56C698.511 1408.11 697.28 1409.95 696.441 1411.98C695.602 1414.01 695.17 1416.18 695.17 1418.37C695.17 1416.18 694.738 1414.01 693.899 1411.98C693.059 1409.95 691.829 1408.11 690.279 1406.56C688.728 1405.01 686.887 1403.78 684.861 1402.94C682.835 1402.1 680.663 1401.67 678.47 1401.67Z" fill="white"/>
<path d="M1678.94 446.02C1621.48 446.02 1564.58 457.338 1511.49 479.328C1458.4 501.318 1410.16 533.549 1369.53 574.181C1328.9 614.813 1296.67 663.051 1274.68 716.139C1252.69 769.228 1241.37 826.127 1241.37 883.59C1241.37 941.052 1252.69 997.952 1274.68 1051.04C1296.67 1104.13 1328.9 1152.37 1369.53 1193C1410.16 1233.63 1458.4 1265.86 1511.49 1287.85C1564.58 1309.84 1621.48 1321.16 1678.94 1321.16H1679.66V446.03L1678.94 446.02Z" fill="#838AAA"/>
<path d="M2116.51 883.59C2116.52 767.662 2070.52 656.47 1988.61 574.43C1906.7 492.391 1795.59 446.21 1679.66 446.03V1321.15C1795.59 1320.96 1906.7 1274.78 1988.61 1192.74C2070.51 1110.71 2116.51 999.516 2116.51 883.59Z" fill="#73789C"/>
<path d="M2127.53 883.58C2127.62 772.837 2086.57 666.007 2012.36 583.81L2012.76 583.58L2003.11 573.5C1921.34 487.82 1808.94 438.063 1690.54 435.14C1686.69 435.04 1682.82 434.99 1678.94 434.99C1675.06 434.99 1671.19 435.04 1667.34 435.14C1548.94 438.059 1436.52 487.816 1354.75 573.5L1345.1 583.58L1345.5 583.82C1271.29 666.016 1230.25 772.842 1230.34 883.58C1230.34 1000.4 1275.24 1106.92 1348.67 1186.82L1348.26 1187.06L1358.26 1197.25C1443.38 1284.25 1557.26 1332.18 1678.97 1332.18C1800.68 1332.18 1914.56 1284.26 1999.68 1197.25L2009.68 1187.06L2009.27 1186.82C2082.63 1106.87 2127.53 1000.4 2127.53 883.58ZM1935.14 872.58C1933.98 787.64 1919.49 706.58 1893.44 637.11C1929.44 625.96 1962.85 611.9 1992.86 595.11C2062.77 670.884 2102.75 769.493 2105.34 872.56L1935.14 872.58ZM1883.14 1155.48C1914.28 1164.75 1944.47 1176.98 1973.28 1192C1918.47 1244.44 1850.65 1281.29 1776.84 1298.77C1808.47 1276.09 1837.38 1242.26 1861.98 1198.38C1869.76 1184.44 1876.84 1170.11 1883.18 1155.46L1883.14 1155.48ZM1842.71 1187.62C1798.42 1266.62 1740.25 1310.14 1678.91 1310.14C1617.57 1310.14 1559.39 1266.63 1515.11 1187.62C1508.31 1175.48 1501.98 1162.76 1496.11 1149.45C1552.47 1134.64 1614.53 1126.82 1678.93 1126.82C1743.33 1126.82 1805.38 1134.64 1861.75 1149.45C1855.88 1162.72 1849.54 1175.43 1842.74 1187.6L1842.71 1187.62ZM1495.94 1198.38C1520.54 1242.26 1549.45 1276.09 1581.08 1298.77C1507.25 1281.3 1439.42 1244.43 1384.6 1191.98C1413.41 1176.96 1443.6 1164.73 1474.74 1155.46C1481.08 1170.11 1488.16 1184.44 1495.94 1198.38ZM1678.94 1104.75C1611.58 1104.75 1546.6 1113.09 1487.59 1128.89C1460.88 1060.46 1445.98 979.66 1444.79 894.6H1913.09C1911.9 979.65 1897 1060.45 1870.29 1128.89C1811.28 1113.09 1746.3 1104.75 1678.94 1104.75ZM1444.79 872.56C1445.95 789.56 1460.17 710.56 1485.68 643.24C1545.14 659.37 1610.77 667.87 1678.94 667.87C1747.11 667.87 1812.74 659.36 1872.2 643.23C1897.71 710.59 1911.93 789.54 1913.09 872.54L1444.79 872.56ZM1678.94 457.04H1679.15C1740.42 457.14 1798.51 500.64 1842.75 579.56C1850.57 593.544 1857.64 607.931 1863.94 622.66C1807.01 637.87 1744.24 645.87 1678.94 645.87C1613.64 645.87 1550.87 637.87 1493.94 622.7C1500.23 607.975 1507.29 593.592 1515.09 579.61C1559.33 500.69 1617.42 457.19 1678.69 457.09L1678.94 457.04ZM1885.25 616.55C1878.37 600.211 1870.59 584.266 1861.94 568.79C1837.34 524.91 1808.43 491.07 1776.8 468.4C1852.31 486.272 1921.51 524.416 1976.94 578.72C1947.69 594.312 1916.98 606.983 1885.25 616.55ZM1581.04 468.39C1549.41 491.07 1520.5 524.87 1495.94 568.79C1487.31 584.27 1479.54 600.218 1472.67 616.56C1440.92 606.992 1410.2 594.318 1380.94 578.72C1436.36 524.419 1505.54 486.272 1581.04 468.39ZM1464.44 637.09C1438.39 706.59 1423.89 787.62 1422.74 872.56H1252.54C1255.14 769.5 1295.11 670.899 1365.02 595.13C1395.03 611.87 1428.46 625.93 1464.44 637.09ZM1422.74 894.61C1423.92 981.61 1439.1 1064.41 1466.33 1134.99C1430.97 1145.82 1398.04 1159.44 1368.38 1175.65C1296.45 1099.46 1255.19 999.394 1252.54 894.65L1422.74 894.61ZM1891.56 1134.99C1918.79 1064.41 1933.97 981.56 1935.15 894.61H2105.35C2102.69 999.354 2061.44 1099.42 1989.51 1175.61C1959.85 1159.44 1926.94 1145.82 1891.56 1134.99Z" fill="#A3ACC9"/>
<path d="M1205.05 1342.58L1171.69 1005.32L1026.69 1024.41L996.51 1338.68L963.81 1032.69L862.08 1046.09L910.76 1482.91H1057.91L1096.88 1119.42L1135.87 1482.91H1278.14L1333.73 983.98L1240.56 996.25L1205.05 1342.58ZM1753.68 1342.58L1713.27 934.01L1582.35 951.25L1545.14 1338.68L1504.83 961.46L1402.78 974.89L1459.39 1482.91H1606.54L1645.52 1119.42L1684.5 1482.91H1826.77L1890.54 910.67L1796.7 923.03L1753.68 1342.58ZM2495.8 715.28L2435.44 530.28L2328.75 737.48L2365.57 732.59L2302.32 1342.58L2254.85 862.7L2138 878.09L2093.78 1338.68L2045.84 890.22L1943.48 903.7L2008.02 1482.91H2155.17L2194.15 1119.42L2233.13 1482.91H2375.4L2459.86 720.06L2495.8 715.28Z" fill="#656C8C"/>
<path d="M1163.05 1342.54L1129.69 1005.28L984.69 1024.37L954.51 1338.65L921.81 1032.65L820.08 1046.05L868.76 1482.87H1015.91L1054.88 1119.39L1093.87 1482.87H1236.14L1291.73 983.95L1198.56 996.21L1163.05 1342.54ZM1711.68 1342.54L1671.27 933.97L1540.35 951.21L1503.14 1338.65L1462.83 961.42L1360.78 974.85L1417.39 1482.87H1564.54L1603.52 1119.39L1642.5 1482.87H1784.77L1848.54 910.63L1754.7 922.99L1711.68 1342.54ZM2453.8 715.24L2393.44 530.25L2286.75 737.44L2323.57 732.55L2260.32 1342.54L2212.85 862.66L2096 878.05L2051.78 1338.65L2003.84 890.18L1901.48 903.66L1966.02 1482.87H2113.17L2152.15 1119.39L2191.13 1482.87H2333.4L2417.86 720.02L2453.8 715.24Z" fill="#FFA9A6"/>
<path d="M1962.64 1443.05C1938.14 1443.05 1914.3 1451.03 1894.73 1465.78C1875.17 1480.53 1860.94 1501.25 1854.19 1524.81H2071.09C2064.34 1501.25 2050.11 1480.53 2030.55 1465.78C2010.98 1451.03 1987.14 1443.05 1962.64 1443.05ZM2258.51 1443.05C2234.01 1443.05 2210.17 1451.03 2190.6 1465.78C2171.04 1480.53 2156.81 1501.25 2150.06 1524.81H2366.94C2360.19 1501.26 2345.97 1480.54 2326.4 1465.79C2306.84 1451.04 2283.01 1443.06 2258.51 1443.05Z" fill="#73789C"/>
<path d="M2117.55 1408.02C2082.55 1408.02 2048.5 1419.42 2020.55 1440.49C1992.61 1461.56 1972.28 1491.15 1962.64 1524.8H2272.46C2262.82 1491.15 2242.49 1461.56 2214.55 1440.49C2186.6 1419.42 2152.55 1408.02 2117.55 1408.02Z" fill="#73789C"/>
<path d="M1957.36 1499.21C1944.23 1499.21 1931.45 1503.49 1920.96 1511.39C1910.47 1519.3 1902.85 1530.4 1899.23 1543.03H2015.49C2011.87 1530.4 2004.25 1519.3 1993.76 1511.39C1983.27 1503.49 1970.49 1499.21 1957.36 1499.21ZM2115.94 1499.21C2102.81 1499.21 2090.03 1503.49 2079.54 1511.39C2069.05 1519.3 2061.43 1530.4 2057.81 1543.03H2174.07C2170.45 1530.4 2162.83 1519.3 2152.34 1511.39C2141.85 1503.49 2129.07 1499.21 2115.94 1499.21Z" fill="#3B3E54"/>
<path d="M2040.39 1480.43C2021.63 1480.44 2003.39 1486.55 1988.42 1497.85C1973.44 1509.14 1962.55 1525 1957.39 1543.03H2123.45C2118.28 1524.99 2107.38 1509.12 2092.4 1497.83C2077.41 1486.53 2059.16 1480.43 2040.39 1480.43Z" fill="#3B3E54"/>
<path d="M1728.95 768.3L1781.11 717.53L1813.88 797.45L1830.49 790.62L1744.4 580.68L1728.95 768.3Z" fill="#D0F1F2"/>
<path d="M1744.51 580.28L1744.4 580.68L1830.49 790.62L1847.1 783.79L1814.33 703.87L1887.25 703.21L1744.51 580.28Z" fill="#A5E4E6"/>
<path d="M2405.99 679.51C2409.92 679.513 2413.81 678.741 2417.45 677.238C2421.08 675.736 2424.38 673.533 2427.16 670.754C2429.94 667.976 2432.15 664.677 2433.66 661.045C2435.16 657.414 2435.94 653.521 2435.94 649.59C2435.94 657.528 2439.09 665.141 2444.71 670.754C2450.32 676.367 2457.93 679.52 2465.87 679.52C2457.93 679.52 2450.32 682.672 2444.71 688.283C2439.1 693.894 2435.94 701.504 2435.94 709.44C2435.94 705.508 2435.17 701.614 2433.66 697.982C2432.15 694.349 2429.95 691.049 2427.17 688.269C2424.39 685.49 2421.08 683.285 2417.45 681.783C2413.82 680.28 2409.92 679.507 2405.99 679.51ZM1482.8 799.16C1490.74 799.16 1498.35 796.007 1503.96 790.394C1509.58 784.781 1512.73 777.168 1512.73 769.23C1512.73 777.168 1515.88 784.781 1521.5 790.394C1527.11 796.007 1534.72 799.16 1542.66 799.16C1534.72 799.16 1527.11 802.313 1521.5 807.926C1515.88 813.539 1512.73 821.152 1512.73 829.09C1512.73 821.152 1509.58 813.539 1503.96 807.926C1498.35 802.313 1490.74 799.16 1482.8 799.16ZM2378.87 753.68C2383.3 753.68 2387.55 751.921 2390.68 748.789C2393.81 745.657 2395.57 741.409 2395.57 736.98C2395.57 741.409 2397.33 745.657 2400.46 748.789C2403.59 751.921 2407.84 753.68 2412.27 753.68C2407.84 753.68 2403.59 755.439 2400.46 758.571C2397.33 761.703 2395.57 765.951 2395.57 770.38C2395.57 765.951 2393.81 761.703 2390.68 758.571C2387.55 755.439 2383.3 753.68 2378.87 753.68ZM1646.66 1009.96C1651.09 1009.96 1655.34 1008.2 1658.47 1005.07C1661.6 1001.94 1663.36 997.689 1663.36 993.26C1663.36 995.453 1663.79 997.625 1664.63 999.651C1665.47 1001.68 1666.7 1003.52 1668.25 1005.07C1669.8 1006.62 1671.64 1007.85 1673.67 1008.69C1675.7 1009.53 1677.87 1009.96 1680.06 1009.96C1677.87 1009.96 1675.7 1010.39 1673.67 1011.23C1671.64 1012.07 1669.8 1013.3 1668.25 1014.85C1666.7 1016.4 1665.47 1018.24 1664.63 1020.27C1663.79 1022.3 1663.36 1024.47 1663.36 1026.66C1663.36 1022.23 1661.6 1017.98 1658.47 1014.85C1655.34 1011.72 1651.09 1009.96 1646.66 1009.96ZM936.94 1384.04C939.133 1384.04 941.305 1383.61 943.331 1382.77C945.357 1381.93 947.198 1380.7 948.749 1379.15C950.299 1377.6 951.53 1375.76 952.369 1373.73C953.208 1371.7 953.64 1369.53 953.64 1367.34C953.64 1369.53 954.072 1371.7 954.911 1373.73C955.75 1375.76 956.981 1377.6 958.531 1379.15C960.082 1380.7 961.923 1381.93 963.949 1382.77C965.975 1383.61 968.147 1384.04 970.34 1384.04C965.911 1384.04 961.663 1385.8 958.531 1388.93C955.399 1392.06 953.64 1396.31 953.64 1400.74C953.64 1398.55 953.208 1396.38 952.369 1394.35C951.53 1392.32 950.299 1390.48 948.749 1388.93C947.198 1387.38 945.357 1386.15 943.331 1385.31C941.305 1384.47 939.133 1384.04 936.94 1384.04Z" fill="white"/>
<path d="M2050.27 1508.08C2050.17 1507.81 2040.02 1480.77 2020.36 1445.63C2002.25 1413.28 1972.14 1367.25 1931.5 1331.63L1935.91 1326.63C1954.2 1342.63 1971.91 1362.03 1988.6 1384.25C2002.43 1402.8 2015.02 1422.25 2026.27 1442.47C2046.16 1478.03 2056.45 1505.47 2056.55 1505.74L2050.27 1508.08Z" fill="#3B3E54"/>
<path d="M1933.28 1338.26C1939.73 1335.91 1943.04 1328.78 1940.69 1322.33C1938.34 1315.89 1931.21 1312.57 1924.77 1314.92C1918.32 1317.28 1915.01 1324.41 1917.36 1330.85C1919.71 1337.29 1926.84 1340.61 1933.28 1338.26Z" fill="#3B3E54"/>
<path d="M1976.14 1316.26C1982.59 1313.91 1985.9 1306.78 1983.55 1300.33C1981.2 1293.89 1974.07 1290.57 1967.63 1292.92C1961.18 1295.27 1957.87 1302.4 1960.22 1308.85C1962.57 1315.29 1969.7 1318.61 1976.14 1316.26Z" fill="#3B3E54"/>
<path d="M1944.47 1421.87C1950.91 1419.52 1954.23 1412.39 1951.88 1405.94C1949.53 1399.5 1942.4 1396.18 1935.95 1398.53C1929.51 1400.89 1926.19 1408.02 1928.55 1414.46C1930.9 1420.9 1938.03 1424.22 1944.47 1421.87Z" fill="#3B3E54"/>
<path d="M1980.21 1373.87L1973.75 1375.65C1973.37 1374.27 1964.48 1341.47 1967.65 1310.94L1974.31 1311.63C1971.27 1340.87 1980.12 1373.53 1980.21 1373.87ZM2000.17 1410.87C1999.95 1410.81 1977.39 1405.15 1946.73 1411.39L1945.4 1404.83C1977.67 1398.27 2000.89 1404.14 2001.86 1404.39L2000.17 1410.87ZM2063.55 1490.25C2063.49 1489.97 2057.47 1461.72 2055.12 1421.53C2052.95 1384.53 2053.54 1329.53 2068.62 1277.66L2062.19 1275.79C2055.4 1299.13 2050.9 1325.02 2048.83 1352.71C2047.17 1375.79 2047.04 1398.95 2048.45 1422.05C2050.84 1462.73 2056.95 1491.38 2057.01 1491.67L2063.55 1490.25Z" fill="#3B3E54"/>
<path d="M2070.73 1283.95C2077.43 1282.46 2081.65 1275.83 2080.16 1269.13C2078.67 1262.44 2072.03 1258.22 2065.34 1259.71C2058.64 1261.2 2054.42 1267.83 2055.91 1274.53C2057.4 1281.22 2064.04 1285.44 2070.73 1283.95Z" fill="#3B3E54"/>
<path d="M2022.77 1288.5C2029.47 1287.01 2033.69 1280.37 2032.2 1273.68C2030.71 1266.98 2024.07 1262.76 2017.38 1264.25C2010.68 1265.74 2006.46 1272.38 2007.95 1279.07C2009.44 1285.77 2016.08 1289.99 2022.77 1288.5Z" fill="#3B3E54"/>
<path d="M2106.35 1360.42C2113.04 1358.93 2117.26 1352.29 2115.77 1345.6C2114.28 1338.9 2107.65 1334.68 2100.95 1336.17C2094.26 1337.66 2090.04 1344.3 2091.52 1350.99C2093.01 1357.69 2099.65 1361.91 2106.35 1360.42Z" fill="#3B3E54"/>
<path d="M2050.3 1339.43L2056.7 1337.43C2056.28 1336.06 2046.1 1303.64 2026.99 1279.62L2021.75 1283.79C2040.08 1306.87 2050.2 1339.1 2050.3 1339.43ZM2053.39 1381.32C2053.55 1381.15 2069.51 1364.23 2098.7 1352.97L2096.29 1346.72C2065.56 1358.57 2049.17 1376.02 2048.48 1376.72L2053.39 1381.32Z" fill="#3B3E54"/>
<path d="M1007.21 655.13L1062.58 710.49C1091.97 681.008 1126.89 657.629 1165.35 641.699C1203.81 625.769 1245.03 617.603 1286.66 617.67V539.37C1234.75 539.305 1183.34 549.499 1135.38 569.365C1087.43 589.231 1043.87 618.377 1007.21 655.13Z" fill="#FFA9A6"/>
<path d="M1510.73 710.5L1566.1 655.14C1529.44 618.389 1485.88 589.244 1437.93 569.38C1389.97 549.516 1338.56 539.324 1286.65 539.39V617.69C1328.28 617.623 1369.5 625.789 1407.96 641.719C1446.42 657.649 1481.34 681.028 1510.73 710.51V710.5Z" fill="#FF908C"/>
<path d="M1366.33 738.55C1392.51 749.182 1416.27 764.987 1436.2 785.02L1491.57 729.65C1464.7 702.684 1432.76 681.301 1397.59 666.734C1362.42 652.166 1324.72 644.702 1286.65 644.77V723.07C1313.96 723.025 1341.02 728.282 1366.33 738.55Z" fill="#FF908C"/>
<path d="M1081.74 729.66L1137.11 785.03C1156.71 765.335 1180.02 749.72 1205.68 739.086C1231.35 728.453 1258.88 723.013 1286.66 723.08V644.78C1248.59 644.711 1210.89 652.176 1175.72 666.744C1140.55 681.311 1108.61 702.694 1081.74 729.66ZM1217.16 763.67C1194.34 772.942 1173.63 786.724 1156.27 804.19L1211.64 859.56C1221.45 849.656 1233.13 841.807 1246.01 836.473C1258.89 831.138 1272.7 828.424 1286.64 828.49V750.19C1262.83 750.145 1239.23 754.723 1217.16 763.67Z" fill="#FFA9A6"/>
<path d="M1326.72 836.23C1339.82 841.576 1351.71 849.511 1361.67 859.56L1417.04 804.19C1399.96 787.014 1379.64 773.396 1357.25 764.127C1334.87 754.858 1310.88 750.121 1286.65 750.19V828.49C1300.38 828.453 1313.99 831.082 1326.72 836.23ZM1342.51 878.72C1335.1 871.239 1326.26 865.331 1316.51 861.35C1307.01 857.514 1296.86 855.558 1286.62 855.59V934.59L1342.51 878.72Z" fill="#FF908C"/>
<path d="M1230.8 878.72L1286.66 934.58V855.58C1276.42 855.549 1266.27 857.505 1256.78 861.34C1247.04 865.327 1238.2 871.238 1230.8 878.72Z" fill="#FFA9A6"/>
</g>
<defs>
<clipPath id="clip0_1146_80">
<rect width="3257.32" height="1769.87" fill="white"/>
</clipPath>
</defs>
</svg>
