<svg width="987" height="695" viewBox="0 0 987 695" fill="none" xmlns="http://www.w3.org/2000/svg">
<path d="M589.013 231L557.513 411H512.263L523.763 346H475.013L463.763 411H418.513L450.263 231H495.263L481.763 307H530.513L544.013 231H589.013ZM716.829 398C703.662 409 684.996 414.5 660.829 414.5C636.662 414.5 619.912 408.917 610.579 397.75C603.912 390.083 600.579 379.5 600.579 366C600.579 360 601.246 353.417 602.579 346.25L622.829 231H667.829L647.579 345.25C646.912 349.417 646.579 353.75 646.579 358.25C646.579 369.917 653.579 375.75 667.579 375.75C675.912 375.75 682.579 373.583 687.579 369.25C692.579 364.917 696.079 356.917 698.079 345.25L718.329 231H763.329L743.079 346.25C738.912 369.583 730.162 386.833 716.829 398ZM869.931 231C888.931 231 902.431 235.167 910.431 243.5C916.431 249.833 919.431 257.833 919.431 267.5C919.431 270.833 919.097 274.333 918.431 278L916.181 290C914.347 299.5 910.764 306.917 905.431 312.25C900.264 317.583 895.681 320.25 891.681 320.25L891.431 322.25C896.097 322.25 900.847 324.833 905.681 330C910.514 335.167 912.931 341.25 912.931 348.25C912.931 351.083 912.597 354.083 911.931 357.25L910.431 365C907.764 379.333 901.347 390.583 891.181 398.75C881.181 406.917 867.181 411 849.181 411H765.681L797.431 231H869.931ZM847.431 337.5H823.681L817.681 372H841.431C841.764 372 842.097 372 842.431 372C850.097 372 856.181 370.25 860.681 366.75C865.181 363.083 867.431 358.667 867.431 353.5C867.431 342.833 860.764 337.5 847.431 337.5ZM854.181 270H835.431L828.931 307.25H847.431C863.431 307.25 871.431 300.25 871.431 286.25C871.431 281.417 869.931 277.5 866.931 274.5C864.097 271.5 859.847 270 854.181 270Z" fill="#EF4A41"/>
<path d="M88.3337 191.469V137.562H257.474V191.469H200.443V411H145.365V191.469H88.3337ZM266.459 137.562H322.709L384.818 349.281L364.115 411H345.756L266.459 137.562ZM366.849 210.219L388.334 137.562H444.584C444.323 138.344 428.308 191.729 396.537 297.719H392.631L366.849 210.219Z" fill="white"/>
</svg>
